<?xml version="1.0" standalone="no"?>
<!DOCTYPE svg PUBLIC "-//W3C//DTD SVG 20010904//EN"
 "http://www.w3.org/TR/2001/REC-SVG-20010904/DTD/svg10.dtd">
<svg version="1.0" xmlns="http://www.w3.org/2000/svg"
 width="1024.000000pt" height="1024.000000pt" viewBox="0 0 1024.000000 1024.000000"
 preserveAspectRatio="xMidYMid meet">
<metadata>
Created by potrace 1.11, written by Peter Selinger 2001-2013
</metadata>
<g transform="translate(0.000000,1024.000000) scale(0.100000,-0.100000)"
fill="#000000" stroke="none">
<path d="M4573 7360 c-684 -687 -701 -704 -772 -800 -22 -30 -45 -60 -51 -67
-5 -7 -10 -17 -10 -23 0 -5 -4 -10 -10 -10 -5 0 -10 -5 -10 -10 0 -6 -12 -29
-27 -53 -34 -54 -88 -162 -113 -230 -12 -28 -25 -61 -30 -72 -8 -19 -31 -87
-36 -110 -53 -225 -64 -305 -65 -475 -1 -124 5 -208 21 -289 5 -29 9 -55 8
-59 -1 -4 1 -14 5 -22 3 -8 11 -40 18 -70 30 -136 155 -436 204 -491 8 -8 15
-19 15 -22 0 -26 177 -246 275 -341 62 -60 230 -196 244 -196 5 0 11 -3 13 -7
18 -42 407 -221 540 -249 13 -3 43 -9 68 -15 132 -28 197 -34 390 -33 182 1
228 4 319 25 25 6 55 12 66 14 156 25 411 137 595 260 119 80 170 124 291 247
393 400 563 936 484 1518 -5 39 -18 100 -32 149 -8 29 -16 59 -17 65 -4 23
-29 93 -47 133 -10 24 -19 47 -19 51 0 5 -17 42 -37 83 -20 41 -37 76 -38 79
0 3 -9 19 -19 35 -100 162 -184 270 -299 388 -130 134 -578 595 -747 767 -91
93 -236 242 -324 332 -87 90 -163 165 -170 168 -6 4 -313 -298 -683 -670z"/>
<path d="M13 5860 c2 -443 7 -823 11 -845 4 -22 16 -76 27 -120 12 -44 22 -87
24 -95 6 -29 67 -176 98 -235 105 -202 247 -374 445 -536 66 -55 315 -203 350
-209 4 -1 27 -10 51 -21 24 -10 47 -19 51 -19 4 0 42 -11 86 -25 81 -25 113
-32 174 -41 19 -2 59 -8 87 -13 78 -12 339 -4 418 12 17 4 46 9 65 13 42 7 44
7 100 23 25 7 52 14 60 16 9 2 43 14 78 28 34 14 62 23 62 20 0 -3 8 1 18 9 9
8 35 22 58 31 22 8 56 24 75 36 19 11 52 29 74 41 22 12 42 25 45 29 3 3 28
22 55 41 75 52 85 60 147 121 32 31 58 54 58 52 0 -2 17 16 38 39 20 24 39 45
42 48 11 10 115 156 129 180 36 62 85 159 100 200 10 25 21 54 26 65 4 11 9
25 10 30 2 6 11 39 20 75 10 36 19 74 21 85 1 11 5 30 8 42 23 105 23 337 0
481 -8 50 -36 177 -44 197 -4 11 -13 38 -19 60 -7 22 -16 49 -21 60 -5 11 -16
38 -25 60 -14 34 -81 160 -118 220 -6 11 -37 52 -66 90 -82 105 -150 171 -307
294 -5 5 -21 14 -35 21 -13 7 -26 16 -29 19 -5 6 -15 12 -95 54 -112 58 -204
92 -355 132 -3 0 -27 5 -55 10 -27 4 -55 9 -61 10 -69 15 -257 18 -1007 19
l-878 2 4 -806z"/>
<path d="M8787 6664 c-1 -1 -42 -5 -92 -9 -49 -4 -92 -8 -96 -10 -6 -4 -39
-11 -99 -21 -19 -3 -42 -10 -50 -14 -8 -4 -18 -8 -22 -9 -5 -1 -9 -1 -10 -2
-2 0 -10 -2 -18 -4 -69 -15 -268 -103 -355 -157 -240 -151 -451 -377 -561
-603 -16 -33 -33 -63 -37 -66 -5 -3 -8 -9 -7 -13 1 -3 -8 -32 -20 -63 -26 -69
-58 -186 -65 -233 -2 -19 -8 -60 -12 -90 -10 -72 -10 -287 0 -372 10 -97 41
-234 71 -321 45 -129 147 -330 198 -392 27 -33 46 -56 68 -85 41 -54 184 -192
232 -225 146 -100 242 -151 368 -198 36 -13 68 -25 73 -26 4 0 8 -1 10 -2 47
-14 175 -40 231 -46 77 -9 296 -8 356 0 149 22 280 60 410 120 36 16 67 34 68
38 2 5 12 9 23 9 10 0 19 4 19 9 0 5 14 14 31 21 17 7 36 18 42 24 7 7 28 23
47 36 90 63 226 197 298 295 28 39 56 75 61 81 5 7 37 63 70 125 84 160 147
348 167 504 3 22 9 56 13 76 5 19 8 393 7 830 l-1 794 -708 0 c-390 0 -709 0
-710 -1z"/>
<path d="M970 2830 l0 -640 4315 0 4315 0 1 23 c0 12 1 39 2 60 1 20 -2 37 -6
37 -5 0 -5 5 -2 11 4 5 6 49 6 97 -1 48 -1 103 0 122 4 157 3 290 -3 290 -4 0
-5 6 -2 14 8 20 10 106 3 106 -4 0 -4 15 0 33 4 17 4 47 0 65 -3 17 -4 32 0
32 3 0 5 24 3 52 -1 29 -3 59 -2 66 0 13 0 93 0 115 0 6 0 32 1 57 0 25 0 50
-1 55 -1 6 -3 17 -4 25 -1 13 -488 15 -4313 17 l-4313 2 0 -639z"/>
</g>
</svg>
