<?xml version="1.0" encoding="utf-8"?>
<!-- Generator: Adobe Illustrator 23.0.0, SVG Export Plug-In . SVG Version: 6.00 Build 0)  -->
<svg version="1.1" id="Capa_1" xmlns="http://www.w3.org/2000/svg" xmlns:xlink="http://www.w3.org/1999/xlink" x="0px" y="0px"
	 viewBox="0 0 312.2 114" style="enable-background:new 0 0 312.2 114;" xml:space="preserve">
<style type="text/css">
	.st0{fill:#808082;}
	.st1{fill:#3B683D;}
	.st2{fill:#9CC34C;}
</style>
<g>
	<g>
		<g>
			<path class="st0" d="M37.8,19.9c-2.6-3.5-6.9-5.4-11.3-5.4c-7.9,0-13.2,6-13.2,13.7c0,7.8,5.4,13.4,13.4,13.4
				c4.2,0,8.4-2,11.1-5.2v15.4C33.5,53,30.5,54,26.5,54c-6.9,0-13.4-2.6-18.5-7.3C2.5,41.8,0,35.4,0,28.1C0,21.3,2.6,14.9,7.3,10
				c4.8-5,11.9-8,18.8-8c4.1,0,7.9,0.9,11.7,2.5V19.9z"/>
			<path class="st0" d="M120.7,16c-2.4-2-5.4-3.3-8.5-3.3c-2.4,0-5.5,1.4-5.5,4.1c0,2.9,3.5,4,5.7,4.7l3.3,1
				c6.9,2,12.2,5.5,12.2,13.5c0,4.9-1.2,9.9-5.1,13.3c-3.9,3.3-9,4.6-14,4.6c-6.2,0-12.3-2.1-17.4-5.6L96.9,38
				c3.2,2.8,7,5.1,11.4,5.1c3,0,6.2-1.5,6.2-5c0-3.6-5-4.9-7.8-5.6c-8.1-2.3-13.4-4.4-13.4-13.9c0-10,7.1-16.6,17-16.6
				c5,0,11.1,1.6,15.5,4.1L120.7,16z"/>
			<path class="st0" d="M81.5,7.5C77.4,3.5,70.9,2,65.1,2c-5.8,0-12.2,1.4-16.4,5.5c-4.9,4.8-5.2,11.1-5.2,17.4l0,27.8l12.8,0l0-11
				l17.4,0l0,11l12.8,0l0-27.8C86.6,18.6,86.4,12.3,81.5,7.5z M56.4,31v-4.3c0-6.4,0.5-13.4,8.7-13.4c8.3,0,8.7,7,8.7,13.4V31
				L56.4,31z"/>
			<path class="st0" d="M170.9,7.5C166.8,3.5,160.3,2,154.5,2c-5.8,0-12.2,1.4-16.4,5.5c-4.9,4.8-5.2,11.1-5.2,17.4v27.8l12.8,0
				l0-11l17.4,0v11l12.8,0V24.9C176.1,18.6,175.8,12.3,170.9,7.5z M145.8,31l0-4.3c0-6.4,0.5-13.4,8.7-13.4c8.3,0,8.7,7,8.7,13.4V31
				L145.8,31z"/>
		</g>
		<g>
			<g>
				<path class="st0" d="M5.9,63.3h18.2c13.8,0,25.1,10.8,25.1,24.7c0,13.9-11.4,24.7-25.1,24.7l-18.2,0L5.9,63.3z M18.7,101.8
					l2.9,0c7.7,0,14.2-4.2,14.2-13.8c0-8.8-5.8-13.8-14.1-13.8l-3,0L18.7,101.8z"/>
				<path class="st0" d="M66.6,74.1l0,8.2l14.5,0l0,10.9l-14.5,0l0,8.5h15.3l0,10.9l-28.1,0V63.2l28.1,0v10.9H66.6z"/>
			</g>
			<g>
				<path class="st0" d="M111.6,74.1l0,8.3l14.1,0v10.9l-14.1,0l0,19.4l-12.8,0l0-49.4l28.4,0l0,10.9L111.6,74.1z"/>
				<path class="st0" d="M219.1,63.2l0,27.8c0,6.4-0.3,12.6-5.2,17.4c-4.1,4.1-10.6,5.5-16.4,5.5c-5.8,0-12.2-1.4-16.4-5.5
					c-4.9-4.8-5.2-11.1-5.2-17.4l0-27.8l12.8,0l0,26c0,6.4,0.5,13.4,8.7,13.4c8.3,0,8.7-7,8.7-13.4l0-26L219.1,63.2z"/>
				<path class="st0" d="M245.5,112.6l-12.8,0V74.1h-10.6V63.3l34.1,0l0,10.9l-10.6,0L245.5,112.6z"/>
				<path class="st0" d="M163.3,100.2c-1.6-1.8-1.7-2.3-3.3-4.8c6.8-1.9,10.6-7,10.6-15.9c0-11.3-7.3-16.2-17.9-16.3l-19.7,0l0,49.4
					l12.8,0l0-16.4l1.3,0c2.5,3.8,4.5,8.2,7.9,11.7c6.1,6.3,11.1,6.2,16.6,6l0-11.4C167.6,102.5,165.1,102.3,163.3,100.2z
					 M145.8,73.6h2.2c5,0,9.2,0.1,9.2,6.3c0,6-4.6,6-9.2,6l-2.2,0L145.8,73.6z"/>
				<path class="st0" d="M296,67.4c-4.1-4.1-10.6-5.5-16.4-5.5c-5.8,0-12.2,1.4-16.4,5.5c-4.9,4.8-5.2,11.1-5.2,17.4l0,27.8l12.8,0
					v-11h17.4v11l12.8,0V84.9C301.2,78.5,301,72.2,296,67.4z M271,90.9v-4.3c0-6.4,0.5-13.4,8.7-13.4c8.2,0,8.7,7,8.7,13.4l0,4.3
					L271,90.9z"/>
			</g>
		</g>
		<g>
			<path class="st0" d="M301.6,64.1c0.3-0.7,0.7-1.2,1.2-1.7c0.5-0.5,1.1-0.9,1.8-1.1c0.7-0.3,1.4-0.4,2.1-0.4
				c0.7,0,1.5,0.1,2.1,0.4c0.7,0.3,1.3,0.7,1.7,1.2c0.5,0.5,0.9,1.1,1.2,1.7c0.3,0.7,0.4,1.4,0.4,2.2c0,0.8-0.1,1.5-0.4,2.2
				c-0.3,0.7-0.7,1.3-1.2,1.7c-0.5,0.5-1.1,0.9-1.7,1.1c-0.7,0.3-1.4,0.4-2.1,0.4c-0.8,0-1.5-0.1-2.1-0.4c-0.7-0.3-1.2-0.7-1.8-1.1
				c-0.5-0.5-0.9-1.1-1.2-1.7c-0.3-0.7-0.4-1.4-0.4-2.2C301.2,65.5,301.3,64.8,301.6,64.1z M302.5,68.1c0.2,0.6,0.5,1.1,0.9,1.5
				c0.4,0.4,0.9,0.8,1.4,1c0.6,0.2,1.1,0.4,1.8,0.4c0.6,0,1.2-0.1,1.8-0.4c0.5-0.2,1-0.6,1.4-1c0.4-0.4,0.7-0.9,1-1.5
				c0.2-0.6,0.3-1.2,0.3-1.9c0-0.7-0.1-1.3-0.4-1.8c-0.2-0.6-0.5-1.1-0.9-1.5c-0.4-0.4-0.9-0.7-1.4-1c-0.5-0.2-1.1-0.4-1.8-0.4
				c-0.6,0-1.2,0.1-1.8,0.4c-0.6,0.2-1,0.6-1.4,1c-0.4,0.4-0.7,0.9-0.9,1.5c-0.2,0.6-0.3,1.2-0.3,1.8
				C302.2,66.9,302.3,67.6,302.5,68.1z M307,63.1c0.8,0,1.3,0.1,1.7,0.4c0.4,0.3,0.6,0.8,0.6,1.4c0,0.6-0.2,1-0.5,1.3
				c-0.3,0.3-0.7,0.4-1.2,0.5l1.8,2.8l-1.1,0l-1.7-2.7h-1.1l0,2.7l-1,0l0-6.4L307,63.1z M306.6,65.9c0.2,0,0.4,0,0.6,0
				c0.2,0,0.4-0.1,0.5-0.1c0.2-0.1,0.3-0.2,0.4-0.3c0.1-0.1,0.1-0.3,0.1-0.6c0-0.2,0-0.4-0.1-0.5c-0.1-0.1-0.2-0.2-0.3-0.3
				c-0.1-0.1-0.3-0.1-0.5-0.1c-0.2,0-0.3,0-0.5,0h-1.3l0,2L306.6,65.9z"/>
		</g>
	</g>
	<g>
		<path class="st1" d="M224.3,40.1c2.8-2.7,5-5.8,6.7-9c-3.2-0.9-6.7-1.5-10.2-1.6c-16.2-0.3-30.4,9.2-36.8,23.1c0,0.1,0,0.2,0,0.2
			S209.5,54.6,224.3,40.1z"/>
		<path class="st2" d="M220.9,25.5c4.1,0.1,8.1,0.7,11.9,1.9c5.8-13.2,5-27.4,5-27.4s-25.4-1.9-40.3,12.7
			c-9.3,9.1-12.3,22.6-13.2,31.3C192.5,32.6,205.9,25.2,220.9,25.5z"/>
	</g>
</g>
</svg>
