<?xml version="1.0" encoding="utf-8"?>
<!-- Generator: Adobe Illustrator 23.0.0, SVG Export Plug-In . SVG Version: 6.00 Build 0)  -->
<svg version="1.1" id="Capa_1" xmlns="http://www.w3.org/2000/svg" xmlns:xlink="http://www.w3.org/1999/xlink" x="0px" y="0px"
	 viewBox="0 0 200.4 200.4" style="enable-background:new 0 0 200.4 200.4;" xml:space="preserve">
<style type="text/css">
	.st0{fill:url(#SVGID_1_);}
	.st1{fill:#FFFFFF;}
</style>
<g>
	<g>
		<g>
			<linearGradient id="SVGID_1_" gradientUnits="userSpaceOnUse" x1="41.1269" y1="22.3316" x2="160.418" y2="179.5875">
				<stop  offset="0" style="stop-color:#B9512E"/>
				<stop  offset="0.3782" style="stop-color:#C4612E"/>
				<stop  offset="1" style="stop-color:#DB832E"/>
			</linearGradient>
			<path class="st0" d="M0,100.2C0,44.9,44.9,0,100.2,0c55.3,0,100.2,44.9,100.2,100.2c0,55.3-44.9,100.2-100.2,100.2
				C44.9,200.4,0,155.5,0,100.2z"/>
		</g>
	</g>
	<g>
		<path class="st1" d="M168.8,81.5l-8.3,0.5c0,0.1,0.4,8.6-3.8,13.3c-1.8,2-4.1,3-7.2,3.1c-3.6,0.2-6.3-0.7-8.3-2.7
			c-3.4-3.4-3.9-9.1-4-11.6v-1.2V64.3v-0.3H129v0.3l0,0V83c0,0.2,0,0.8,0,1.5v0.8c0,0.5-0.5,12.9-10.7,12.9c-2.6,0-4.5-0.7-5.9-2.2
			c-2.9-3.1-3.1-8.8-3-10.8l0-20.6v0l0,0v-0.3h-8.3v0.2l0,0.6C101,71,101,76.5,100.1,80c-3.2,13.4-8.1,15.7-10,16.6
			c-3,1.4-7.6,2.7-12.5,0.5c-1.8-0.8-3.5-1.9-5.1-3.5c5.2-5.2,9.4-11.6,12.4-19.1c0.3-0.7,7.5-18.4,3.7-37.4
			c-3.4-16.7-14.2-18.6-18.9-18.6c0,0-0.1,0-0.1,0c-7.4,0-17.1,5.2-20,19.8c-3.7,18.2,2.2,34,3,35.9c2.4,7.3,5.1,13.4,8.3,18.3
			c-4.8,3.3-10.3,5.7-16.7,7.3c-9.9,2.4-17.9,2-17.9,2l-0.5,8.3c0.1,0,0.9,0,2.2,0c3.4,0,10.2-0.3,18.2-2.2
			c7.6-1.9,14.2-4.8,19.9-8.8c2.5,2.5,5.3,4.4,8.2,5.7c6.1,2.6,12.9,2.4,19.3-0.6c2.7-1.3,6-3.4,9-8.2c0.8,2,1.9,4,3.5,5.8
			c3,3.2,7.1,4.9,12,4.9c7.2,0,11.9-3.4,14.8-7.7c0.6,1,1.4,1.9,2.3,2.8c3.4,3.4,7.9,5.2,13.3,5.2c0.4,0,0.8,0,1.3,0
			c5.3-0.3,9.7-2.2,12.9-5.9C169.4,93.5,168.8,82,168.8,81.5z M60.5,71.5l-0.1-0.3c-0.1-0.1-5.9-14.7-2.6-31.3
			c2.6-12.7,11-13.1,11.9-13.1c0,0,0,0,0.1,0c5.5,0,9.1,4,10.7,11.9c3.3,16.5-3.2,32.4-3.2,32.7c-2.4,6.2-5.7,11.4-9.9,15.7
			C64.8,82.9,62.5,77.7,60.5,71.5z"/>
		<path class="st1" d="M116.5,137.5c-0.8,8.7-5.2,13.1-12.8,13.1c-2.6,0-4.5-0.7-5.8-2.2c-2.7-3-2.9-8.8-2.7-10.7l0-21l0,0
			c0,0,0,0,0-0.1l-4.1,0.1h-4.1v0.1c0.2,13.3-2.6,23.1-8.5,29.1c-5.2,5.3-11.4,6-14.6,6c-6.1,0-11.1-1.9-14.5-5.5
			c-2.9-3.1-4.5-7.4-4.5-12c0-7.1,4.1-14.8,13.1-14.8c9.2,0,10,7.6,10,9.1l4.1-0.1l4.1-0.1c-0.1-6.9-5.1-17.2-18.3-17.2
			c-14,0-21.4,11.6-21.4,23.1c0,6.7,2.4,12.9,6.7,17.6c3.5,3.7,9.8,8.2,20.6,8.2c4.5,0,13.2-1.1,20.5-8.5c1.4-1.4,2.5-2.9,3.6-4.6
			c0.7,2.4,1.9,4.8,3.7,6.9c2.9,3.2,7.1,4.9,12,4.9c5.1,0,9.4-1.4,12.8-4v2.4c0,19.9-11,19.9-14.6,19.9c-9.9,0-13.6-9.9-13.7-10.3
			l-7.8,2.7c0.2,0.6,5.6,15.9,21.5,15.9c14.6,0,22.9-10.3,22.9-28.2v-40.8h-8.3V137.5z"/>
	</g>
	<g>
		<g>
			<path class="st1" d="M131.9,122.2c0-3.9,3.1-7,7-7c3.8,0,7,3.1,7,7c0,3.8-3.1,7-7,7C135,129.2,131.9,126.1,131.9,122.2z
				 M144.4,122.2c0-3.3-2.2-5.8-5.5-5.8c-3.3,0-5.5,2.5-5.5,5.8c0,3.3,2.2,5.8,5.5,5.8C142.1,128,144.4,125.5,144.4,122.2z
				 M136.1,118.2h3.1c2,0,2.9,0.7,2.9,2.3c0,1.5-0.7,2.1-2.1,2.3l2.3,3.5h-1.4l-2.2-3.5h-1.4v3.5h-1.2V118.2z M138.8,121.7
				c1.2,0,2.1-0.1,2.1-1.3c0-1-0.8-1.2-1.8-1.2h-1.7v2.5H138.8z"/>
		</g>
	</g>
</g>
</svg>
