<?xml version="1.0" encoding="utf-8"?>
<!-- Generator: Adobe Illustrator 23.0.0, SVG Export Plug-In . SVG Version: 6.00 Build 0)  -->
<svg version="1.1" id="Capa_1" xmlns="http://www.w3.org/2000/svg" xmlns:xlink="http://www.w3.org/1999/xlink" x="0px" y="0px"
	 viewBox="0 0 45.8 37.2" style="enable-background:new 0 0 45.8 37.2;" xml:space="preserve">
<style type="text/css">
	.st0{fill:#988648;}
</style>
<g>
	<path class="st0" d="M26.4,35.1c7-0.1,14.6-5.2,14.6-14.6C41,15,36.9,9.5,25.8,9.5c0-5.3,2.9-9.5,9.2-9.5c7.4,0,10.7,6.9,10.7,14.3
		c0,12.2-7.4,22.9-19.4,22.9V35.1z M0.4,35.1c8-0.1,14.8-5.2,14.8-14.6C15.1,15,11.1,9.5,0,9.5C0,4.2,3,0,9.3,0
		c7.4,0,10.6,6.9,10.6,14.3c0,12.2-7.5,22.9-19.5,22.9V35.1z"/>
</g>
</svg>
