<?xml version="1.0" encoding="utf-8"?>
<!-- Generator: Adobe Illustrator 23.0.0, SVG Export Plug-In . SVG Version: 6.00 Build 0)  -->
<svg version="1.1" id="Capa_1" xmlns="http://www.w3.org/2000/svg" xmlns:xlink="http://www.w3.org/1999/xlink" x="0px" y="0px"
	 viewBox="0 0 32.3 26.4" style="enable-background:new 0 0 32.3 26.4;" xml:space="preserve">
<style type="text/css">
	.st0{fill:#988648;}
</style>
<g>
	<path class="st0" d="M14,1.5C8,1.6,3.4,5.2,3.4,11.8c0,3.9,2.8,7.8,10.7,7.8c0,3.8-2.1,6.8-6.6,6.8C2.1,26.4,0,21.5,0,16.2
		C0,7.6,5,0,14,0V1.5z M32,1.5c-5,0.1-10.5,3.7-10.5,10.4c0,3.9,2.9,7.8,10.7,7.8c0,3.8-2.1,6.8-6.6,6.8c-5.3,0-7.5-4.9-7.5-10.2
		C18.1,7.6,24,0,32,0V1.5z"/>
</g>
</svg>
