<?xml version="1.0" encoding="utf-8"?>
<!-- Generator: Adobe Illustrator 23.0.0, SVG Export Plug-In . SVG Version: 6.00 Build 0)  -->
<svg version="1.1" id="Capa_1" xmlns="http://www.w3.org/2000/svg" xmlns:xlink="http://www.w3.org/1999/xlink" x="0px" y="0px"
	 viewBox="0 0 27.1 27.1" style="enable-background:new 0 0 27.1 27.1;" xml:space="preserve">
<style type="text/css">
	.st0{fill-rule:evenodd;clip-rule:evenodd;fill:#4D4D4D;}
	.st1{fill-rule:evenodd;clip-rule:evenodd;fill:#FFFFFF;}
</style>
<g>
	<path class="st0" d="M27.1,13.6c0,7.5-6.1,13.6-13.6,13.6C6.1,27.1,0,21,0,13.6C0,6.1,6.1,0,13.6,0C21,0,27.1,6.1,27.1,13.6z"/>
	<path class="st1" d="M11.4,17.7c0-1.3,0-2.5,0-3.8c0-0.2-0.1-0.3-0.3-0.3c-0.4,0-0.8,0-1.2,0c-0.2,0-0.2,0-0.2-0.2
		c0-0.8,0-1.6,0-2.4c0-0.2,0-0.2,0.2-0.2c0.4,0,0.8,0,1.2,0c0.2,0,0.3-0.1,0.3-0.3c0-0.6,0-1.2,0-1.8c0-0.7,0.2-1.4,0.7-2
		c0.6-0.8,1.3-1.1,2.3-1.1c0.9,0,1.9,0,2.8,0c0.1,0,0.2,0,0.2,0.2c0,0.8,0,1.6,0,2.4c0,0.1,0,0.2-0.2,0.2c-0.4,0-0.9,0-1.3,0
		c-0.6,0-1,0.3-1,0.9c0,0.5,0,1,0,1.4c0,0.2,0.1,0.2,0.2,0.2c0.7,0,1.4,0,2,0c0.2,0,0.3,0,0.2,0.3c-0.1,0.8-0.2,1.6-0.2,2.4
		c0,0.2-0.1,0.2-0.3,0.2c-0.5,0-1.1,0-1.6,0c-0.4,0-0.4-0.1-0.4,0.3c0,2.5,0,5,0,7.4c0,0.3-0.1,0.3-0.3,0.3c-0.9,0-1.9,0-2.8,0
		c-0.3,0-0.3-0.1-0.3-0.3C11.4,20.2,11.4,18.9,11.4,17.7z"/>
</g>
</svg>
