<?xml version="1.0" encoding="utf-8"?>
<!-- Generator: Adobe Illustrator 23.0.0, SVG Export Plug-In . SVG Version: 6.00 Build 0)  -->
<svg version="1.1" id="Capa_1" xmlns="http://www.w3.org/2000/svg" xmlns:xlink="http://www.w3.org/1999/xlink" x="0px" y="0px"
	 viewBox="0 0 32 18.3" style="enable-background:new 0 0 32 18.3;" xml:space="preserve">
<style type="text/css">
	.st0{fill:#988648;}
</style>
<g>
	<g>
		<g>
			<g>
				<path class="st0" d="M5.1,4.3H0v4.5c0,2.6,2.3,4.8,4.9,4.8c2.6,0,4.9-2,4.9-4.6C9.8,6.3,7.8,4.3,5.1,4.3z"/>
				<path class="st0" d="M16.4,0l-4,4c-2.2,2.2-2.2,5.7,0,7.9c2.2,2.2,5.7,2.2,7.9,0c2.2-2.2,2.2-5.7,0-7.9L16.4,0z"/>
				<path class="st0" d="M27.7,4.3c-2.6,0-4.8,2-4.8,4.6c0,2.6,1.9,4.7,4.5,4.7c2.6,0,4.5-2.2,4.5-4.8V4.3H27.7z"/>
				<rect x="3" y="14.3" class="st0" width="27" height="4"/>
			</g>
		</g>
	</g>
</g>
</svg>
