<?xml version="1.0" encoding="utf-8"?>
<!-- Generator: Adobe Illustrator 23.0.0, SVG Export Plug-In . SVG Version: 6.00 Build 0)  -->
<svg version="1.1" id="Capa_1" xmlns="http://www.w3.org/2000/svg" xmlns:xlink="http://www.w3.org/1999/xlink" x="0px" y="0px"
	 viewBox="0 0 27.1 27.1" style="enable-background:new 0 0 27.1 27.1;" xml:space="preserve">
<style type="text/css">
	.st0{fill:#4D4D4D;}
	.st1{fill:#FFFFFF;}
</style>
<g>
	<path class="st0" d="M13.6,0C6.1,0,0,6.1,0,13.6C0,21,6.1,27.1,13.6,27.1c7.5,0,13.6-6.1,13.6-13.6C27.1,6.1,21,0,13.6,0z"/>
	<path class="st1" d="M16.2,13.5c0,1.4-1.1,2.6-2.6,2.6c-1.4,0-2.6-1.1-2.6-2.6c0-1.4,1.2-2.6,2.6-2.6C15,11,16.2,12.1,16.2,13.5z
		 M19.9,10.4c0,0.8,0,1.1,0,3.1c0,2.1,0,2.3,0,3.1c0,0.8-0.2,1.2-0.3,1.4c-0.1,0.4-0.3,0.6-0.6,0.9c-0.3,0.3-0.5,0.4-0.9,0.6
		c-0.3,0.1-0.7,0.2-1.4,0.3c-0.8,0-1.1,0-3.1,0c-2.1,0-2.3,0-3.1,0c-0.8,0-1.2-0.2-1.4-0.3c-0.4-0.1-0.6-0.3-0.9-0.6
		c-0.3-0.3-0.4-0.5-0.6-0.9c-0.1-0.3-0.2-0.7-0.3-1.4c0-0.8,0-1.1,0-3.1c0-2.1,0-2.3,0-3.1c0-0.8,0.2-1.2,0.3-1.4
		c0.1-0.4,0.3-0.6,0.6-0.9C8.4,7.8,8.7,7.7,9,7.5c0.3-0.1,0.7-0.2,1.4-0.3c0.8,0,1.1,0,3.1,0c2.1,0,2.3,0,3.1,0
		c0.8,0,1.2,0.2,1.4,0.3c0.4,0.1,0.6,0.3,0.9,0.6c0.3,0.3,0.4,0.5,0.6,0.9C19.7,9.3,19.8,9.7,19.9,10.4z M17.5,13.5c0-2.2-1.8-4-4-4
		c-2.2,0-4,1.8-4,4c0,2.2,1.8,4,4,4C15.8,17.5,17.5,15.7,17.5,13.5z M18.6,9.4c0-0.5-0.4-0.9-0.9-0.9c-0.5,0-0.9,0.4-0.9,0.9
		c0,0.5,0.4,0.9,0.9,0.9C18.2,10.4,18.6,9.9,18.6,9.4z M21.3,13.5c0-2.1,0-2.4,0-3.2c0-0.8-0.2-1.4-0.4-1.9C20.7,8,20.4,7.6,20,7.1
		c-0.4-0.4-0.9-0.7-1.4-0.9c-0.5-0.2-1.1-0.3-1.9-0.4c-0.8,0-1.1,0-3.2,0c-2.1,0-2.4,0-3.2,0C9.6,5.9,9,6.1,8.5,6.2
		C8,6.4,7.6,6.7,7.2,7.1C6.7,7.6,6.5,8,6.3,8.5C6.1,9,6,9.5,5.9,10.4c0,0.8,0,1.1,0,3.2c0,2.1,0,2.4,0,3.2c0,0.8,0.2,1.4,0.4,1.9
		c0.2,0.5,0.5,0.9,0.9,1.4c0.4,0.4,0.9,0.7,1.4,0.9c0.5,0.2,1.1,0.3,1.9,0.4c0.8,0,1.1,0,3.2,0c2.1,0,2.4,0,3.2,0
		c0.8,0,1.4-0.2,1.9-0.4c0.5-0.2,0.9-0.5,1.4-0.9c0.4-0.4,0.7-0.9,0.9-1.4c0.2-0.5,0.3-1.1,0.4-1.9C21.3,15.9,21.3,15.6,21.3,13.5z"
		/>
</g>
</svg>
