<?xml version="1.0" encoding="utf-8"?>
<!-- Generator: Adobe Illustrator 23.0.0, SVG Export Plug-In . SVG Version: 6.00 Build 0)  -->
<svg version="1.1" id="Capa_1" xmlns="http://www.w3.org/2000/svg" xmlns:xlink="http://www.w3.org/1999/xlink" x="0px" y="0px"
	 viewBox="0 0 27.1 27.1" style="enable-background:new 0 0 27.1 27.1;" xml:space="preserve">
<style type="text/css">
	.st0{fill-rule:evenodd;clip-rule:evenodd;fill:#FFFFFF;}
	.st1{fill:#EEE6DB;}
</style>
<g>
	<path class="st0" d="M27.1,13.6c0,7.5-6.1,13.6-13.6,13.6C6.1,27.1,0,21,0,13.6C0,6.1,6.1,0,13.6,0C21,0,27.1,6.1,27.1,13.6z"/>
	<g>
		<rect x="6.6" y="9.9" class="st1" width="3.2" height="10.4"/>
		<path class="st1" d="M8.1,8.8C7,8.8,6.2,8,6.2,6.9c0-1,0.8-1.9,1.9-1.9c1,0,1.9,0.8,1.9,1.9C9.9,8,9.1,8.8,8.1,8.8z"/>
		<path class="st1" d="M21.8,20.3h-3.2v-4.8c0-1.2-0.2-2.7-1.9-2.7c-1.7,0-2.1,1.3-2.1,2.7v4.9h-3.2V9.9h3.2v1.6h0.2
			c0.4-0.8,1.5-1.6,3.1-1.6c3.2,0,3.9,2.2,3.9,5V20.3z"/>
	</g>
</g>
</svg>
