<?xml version="1.0" encoding="utf-8"?>
<!-- Generator: Adobe Illustrator 23.0.0, SVG Export Plug-In . SVG Version: 6.00 Build 0)  -->
<svg version="1.1" id="Capa_1" xmlns="http://www.w3.org/2000/svg" xmlns:xlink="http://www.w3.org/1999/xlink" x="0px" y="0px"
	 viewBox="0 0 215 52.5" style="enable-background:new 0 0 215 52.5;" xml:space="preserve">
<style type="text/css">
	.st0{fill:#988648;}
	.st1{fill:#FFFFFF;}
</style>
<g>
	<g>
		<g>
			<g>
				<path class="st0" d="M57.6,4.3h-5.1v4.5c0,2.6,2.3,4.8,4.9,4.8c2.6,0,4.9-2,4.9-4.6C62.3,6.3,60.3,4.3,57.6,4.3z"/>
				<path class="st0" d="M68.9,0l-4,4c-2.2,2.2-2.2,5.7,0,7.9c2.2,2.2,5.7,2.2,7.9,0c2.2-2.2,2.2-5.7,0-7.9L68.9,0z"/>
				<path class="st0" d="M80.2,4.3c-2.6,0-4.8,2-4.8,4.6c0,2.6,1.9,4.7,4.5,4.7c2.6,0,4.5-2.2,4.5-4.8V4.3H80.2z"/>
				<rect x="55.5" y="14.3" class="st0" width="27" height="4"/>
			</g>
			<g>
				<path class="st1" d="M210.2,23c-2,0-3.6-1.6-3.6-3.8c0-2.2,1.6-3.8,3.6-3.8c2,0,3.6,1.6,3.6,3.8C213.8,21.4,212.2,23,210.2,23z
					 M210.2,24c2.6,0,4.8-2.1,4.8-4.7c0-2.6-2.1-4.7-4.8-4.7c-2.6,0-4.8,2.1-4.8,4.7C205.5,21.8,207.6,24,210.2,24z M208.5,22.3h1
					v-3h0.5l1.4,3h1l-1.5-2.5c0.9-0.1,1.4-0.7,1.4-1.7c0-1.1-0.7-1.8-2-1.8h-1.9V22.3z M209.4,17.3h0.9c0.5,0,1.1,0.1,1.1,0.7
					c0,0.7-0.5,0.8-1.1,0.8h-0.9V17.3z"/>
				<path class="st1" d="M9.5,23.7c3-2.6,6.1-4,10.1-4c3.8,0,7.5,1.2,9.7,4c2.6-2.8,5.7-4,9.8-4c8.4,0,10.3,5.1,10.3,11.5v13.8
					c0,2.6,0.5,5.4,3,7.4h-10v-21c0-3.6-1.2-6.5-5.8-6.5c-4.9,0-6.2,3.5-6.2,7.3v12.8c0,2.6-0.3,5.4,2.2,7.4H22.5V32.1
					c0-3.7-1-7.3-5.9-7.3c-4.7,0-6.1,3.8-6.1,7.3v12.8c0,2.6-0.1,5.4,2.4,7.4H2.5v-25c0-2.5,0-5-2.5-7h9.5V23.7z"/>
				<path class="st1" d="M76.7,35.7c0,4.6-1.1,11.1-7.8,11.1c-6.7,0-7.8-6.5-7.8-11.1c0-4.4,1.7-10.4,7.8-10.4
					C75,25.3,76.7,31.3,76.7,35.7z M84.9,35.8c0-8.8-5.4-16.2-16-16.2c-10.5,0-16,7.5-16,16.2c0,8.9,5,16.7,16,16.7
					C79.9,52.5,84.9,44.7,84.9,35.8z"/>
				<path class="st1" d="M95.5,23.7c3-2.9,6-4,10.5-4c2.8,0,6,1,7.9,2.9c2.4,2.5,2.5,5.7,2.5,8.8v13.5c0,2.6-0.3,5.4,2.2,7.4h-10.2
					v-20c0-3.9-1-7.4-6.3-7.4c-5.4,0-6.7,4-6.7,8v12.1c0,2.6,0.3,5.4,2.9,7.4h-9.9v-25c0-2.5-0.6-5-3.1-7h10.1V23.7z"/>
				<path class="st1" d="M139.5,36.1v7.3c-2,2.1-4,3.9-6.9,3.9c-2.9,0-5.1-2.2-5.1-4.7C127.5,37.2,134.5,36.1,139.5,36.1z M121.5,29
					c2-3,6.6-4.2,10.7-4.2c6,0,7,2.2,7,7.1c-8.3,0-20.2,2.1-20.2,11.4c0,5.4,4.6,9.2,10.6,9.2c3.9,0,6.9-1.2,9.6-3.8
					c0.2,1.1,0.4,1.5,0.9,3.5h9.4c-2.5-2-3-4.8-3-7.4V30.7c0-3.2,0.2-6-2.5-8.3c-2.4-2.1-5.9-2.7-9.1-2.7c-3.3,0-6.3,0.6-9.6,0.6
					c-1.4,0-2.8-0.1-3.8-0.7V29z"/>
				<path class="st1" d="M174.6,29.4c-1.8-2.6-3.7-4.4-7.4-4.4c-6.6,0-9,6.1-9,11c0,5.5,3.1,10.9,9.9,10.9c3.3,0,5.8-2,7.2-4.4
					l-0.7,9.8c-0.5-0.3-1.1-0.5-1.8-0.5c-2.3,0-4.6,0.7-7,0.7c-10.1,0-15.9-8.2-15.9-16.5c0-7.9,5.4-16.4,15.3-16.4
					c2.1,0,4.1,0.5,6.1,0.5c1,0,1.7-0.5,2.3-1L174.6,29.4z"/>
				<path class="st1" d="M200.3,35.7c0,4.6-1.1,11.1-7.8,11.1c-6.7,0-7.8-6.5-7.8-11.1c0-4.4,1.7-10.4,7.8-10.4
					C198.6,25.3,200.3,31.3,200.3,35.7z M208.5,35.8c0-8.8-5.4-16.2-16-16.2c-10.5,0-16,7.5-16,16.2c0,8.9,5,16.7,16,16.7
					C203.5,52.5,208.5,44.7,208.5,35.8z"/>
			</g>
		</g>
	</g>
</g>
</svg>
