<?xml version="1.0" encoding="utf-8"?>
<!-- Generator: Adobe Illustrator 23.0.0, SVG Export Plug-In . SVG Version: 6.00 Build 0)  -->
<svg version="1.1" id="Capa_1" xmlns="http://www.w3.org/2000/svg" xmlns:xlink="http://www.w3.org/1999/xlink" x="0px" y="0px"
	 viewBox="0 0 204 67.9" style="enable-background:new 0 0 204 67.9;" xml:space="preserve">
<style type="text/css">
	.st0{fill:#988648;}
</style>
<g>
	<g>
		<g>
			<path class="st0" d="M54.7,3.8h-4.5v4.5c0,2.5,2,4.5,4.5,4.5c2.5,0,4.5-2,4.5-4.5C59.2,5.8,57.2,3.8,54.7,3.8z"/>
			<path class="st0" d="M65.4,0l-3.8,3.8c-2.1,2.1-2.1,5.4,0,7.5c2.1,2.1,5.4,2.1,7.5,0c2.1-2.1,2.1-5.4,0-7.5L65.4,0z"/>
			<path class="st0" d="M76.1,3.8c-2.5,0-4.5,2-4.5,4.5c0,2.5,2,4.5,4.5,4.5c2.5,0,4.5-2,4.5-4.5V3.8H76.1z"/>
			<rect x="52.6" y="13.9" class="st0" width="25.6" height="3"/>
		</g>
		<g>
			<path d="M199.5,21.9c-1.9,0-3.4-1.5-3.4-3.6s1.5-3.6,3.4-3.6c1.9,0,3.4,1.5,3.4,3.6S201.4,21.9,199.5,21.9z M199.5,22.7
				c2.5,0,4.5-2,4.5-4.5s-2-4.5-4.5-4.5c-2.5,0-4.5,2-4.5,4.5S197,22.7,199.5,22.7z M197.8,20.8h1v-2.2h0.6l1.3,2.2h1l-1.4-2.2
				c0.8-0.1,1.3-0.5,1.3-1.4c0-1.1-0.7-1.5-1.9-1.5h-1.9V20.8z M198.7,16.4h0.8c0.5,0,1,0.1,1,0.7c0,0.7-0.5,0.8-1.1,0.8h-0.8V16.4z
				"/>
			<path d="M9.4,22.5c2.6-2.5,5.6-3.8,9.4-3.8c3.6,0,7.1,1.1,9.1,3.8c2.5-2.6,5.6-3.8,9.4-3.8c8,0,9.9,4.8,9.9,10.9v13.1
				c0,2.4,0.1,4.9,2.5,6.5H40V29.7c0-3.4-1.2-6.2-5.5-6.2c-4.7,0-5.9,3.3-5.9,6.9v12.1c0,2.4,0.1,5,2.5,6.5h-9.8V30.5
				c0-3.5-1-6.9-5.6-6.9c-4.4,0-5.8,3.6-5.8,6.9v12.1c0,2.4,0.1,5,2.5,6.5H2.5V25.9c0-2.4-0.1-5-2.5-6.5h9.4V22.5z"/>
			<path d="M72.8,33.9c0,4.4-1,10.5-7.4,10.5c-6.3,0-7.4-6.2-7.4-10.5c0-4.2,1.6-9.9,7.4-9.9C71.2,24,72.8,29.7,72.8,33.9z M80.6,34
				c0-8.4-5.2-15.4-15.2-15.4c-10,0-15.1,7.1-15.1,15.4c0,8.4,4.7,15.8,15.1,15.8C75.8,49.8,80.6,42.4,80.6,34z"/>
			<path d="M90.5,22.5c2.9-2.8,5.7-3.8,10.1-3.8c2.7,0,5.5,0.9,7.4,2.8c2.3,2.3,2.3,5.4,2.3,8.4v12.8c0,2.4,0.1,4.9,2.5,6.5h-9.8
				V30.6c0-3.7-0.7-7-5.8-7c-5.1,0-6.1,3.8-6.1,7.6v11.5c0,2.4,0.1,5,2.5,6.5h-9.8V25.9c0-2.4-0.1-5-2.4-6.5h9.4V22.5z"/>
			<path d="M132.1,34.3v7c-1.4,2-3.6,3.7-6.4,3.7c-2.8,0-4.9-2.1-4.9-4.5C120.7,35.3,127.5,34.3,132.1,34.3z M115.2,27.5
				c2.4-2.9,6.3-4,10.2-4c5.7,0,6.7,2.1,6.7,6.7c-7.9,0-19.1,2-19.1,10.8c0,5.1,4.4,8.8,10.1,8.8c3.7,0,6.6-1.4,9.1-3.8
				c0.2,1,0.4,2.1,0.9,3.1h9c-2.4-1.6-2.5-4.1-2.5-6.5V29.1c0-3,0-5.7-2.6-7.9c-2.3-2-5.7-2.6-8.8-2.6c-3.1,0-6.1,0.5-9.3,0.5
				c-1.3,0-2.5-0.1-3.7-0.7V27.5z"/>
			<path d="M165.6,27.9c-1.7-2.5-3.6-4.2-7.1-4.2c-6.3,0-8.5,5.8-8.5,10.4c0,5.2,2.9,10.3,9.4,10.3c3.1,0,5.5-1.9,6.9-4.2l-0.7,9.3
				c-0.5-0.3-1-0.4-1.7-0.4c-2.2,0-4.3,0.7-6.6,0.7c-9.6,0-15.1-7.8-15.1-15.7c0-7.5,5.1-15.5,14.5-15.5c2,0,3.9,0.5,5.8,0.5
				c0.9,0,1.6-0.4,2.2-0.9L165.6,27.9z"/>
			<path d="M190.1,33.9c0,4.4-1,10.5-7.4,10.5c-6.3,0-7.4-6.2-7.4-10.5c0-4.2,1.6-9.9,7.4-9.9C188.5,24,190.1,29.7,190.1,33.9z
				 M197.9,34c0-8.4-5.1-15.4-15.2-15.4c-10,0-15.1,7.1-15.1,15.4c0,8.4,4.7,15.8,15.1,15.8C193.1,49.8,197.9,42.4,197.9,34z"/>
		</g>
		<g>
			<path class="st0" d="M34.6,59.5c0-1.9,0-2.2,0-2.6c0-0.4-0.1-0.6-0.5-0.7c-0.1,0-0.3,0-0.5,0c-0.1,0-0.2,0-0.2-0.1
				c0-0.1,0.1-0.1,0.3-0.1c0.7,0,1.4,0,1.8,0c0.5,0,1.2,0,1.8,0c1.6,0,2.1,0.5,2.3,0.7c0.3,0.3,0.6,0.8,0.6,1.5c0,1.8-1.3,3-3.1,3
				c-0.1,0-0.2,0-0.3,0c-0.1,0-0.2,0-0.2-0.1c0-0.1,0.1-0.1,0.3-0.1c0.7,0,1.7-0.8,1.7-2c0-0.4,0-1.2-0.7-1.9
				c-0.4-0.4-1-0.5-1.2-0.5c-0.2,0-0.4,0-0.5,0c-0.1,0-0.1,0.1-0.1,0.2v5c0,1.1,0,2.1,0.1,2.7c0,0.3,0.1,0.6,0.5,0.7
				c0.2,0,0.4,0,0.6,0c0.1,0,0.2,0,0.2,0.1c0,0.1-0.1,0.1-0.2,0.1c-0.8,0-1.6,0-1.9,0c-0.3,0-1.1,0-1.6,0c-0.2,0-0.2,0-0.2-0.1
				c0-0.1,0-0.1,0.2-0.1c0.2,0,0.3,0,0.4,0c0.3-0.1,0.3-0.3,0.4-0.7c0.1-0.5,0.1-1.5,0.1-2.6V59.5z"/>
			<path class="st0" d="M42.8,59.5c0-1.9,0-2.2,0-2.6c0-0.4-0.1-0.6-0.5-0.7c-0.1,0-0.3,0-0.5,0c-0.1,0-0.2,0-0.2-0.1
				c0-0.1,0.1-0.1,0.3-0.1c0.7,0,1.4,0,1.7,0c0.4,0,1.4,0,1.8,0c0.8,0,1.6,0.1,2.3,0.5c0.3,0.2,0.8,0.9,0.8,1.7
				c0,0.9-0.4,1.8-1.6,2.8c1.1,1.4,2,2.5,2.7,3.3c0.7,0.7,1.2,0.8,1.4,0.8c0.1,0,0.2,0,0.3,0c0.1,0,0.1,0,0.1,0.1
				c0,0.1-0.1,0.1-0.2,0.1h-1.2c-0.7,0-1-0.1-1.3-0.2c-0.5-0.3-1-0.9-1.7-1.8c-0.5-0.7-1.1-1.5-1.2-1.7c-0.1-0.1-0.1-0.1-0.2-0.1
				l-1.1,0c-0.1,0-0.1,0-0.1,0.1v0.2c0,1.2,0,2.1,0.1,2.7c0,0.4,0.1,0.6,0.5,0.7c0.2,0,0.5,0,0.6,0c0.1,0,0.2,0,0.2,0.1
				c0,0.1-0.1,0.1-0.3,0.1c-0.7,0-1.6,0-1.8,0c-0.2,0-1,0-1.5,0c-0.2,0-0.2,0-0.2-0.1c0-0.1,0.1-0.1,0.2-0.1c0.2,0,0.3,0,0.4,0
				c0.2-0.1,0.3-0.3,0.4-0.7c0.1-0.5,0.1-1.5,0.1-2.6V59.5z M44.2,60.4c0,0.1,0,0.2,0.1,0.2c0.3,0.1,0.6,0.1,0.9,0.1
				c0.5,0,0.7,0,0.9-0.2c0.4-0.3,0.7-0.8,0.7-1.9c0-1.8-1.2-2.3-1.9-2.3c-0.3,0-0.5,0-0.7,0.1c-0.1,0-0.1,0.1-0.1,0.2V60.4z"/>
			<path class="st0" d="M52.1,59.5c0-1.9,0-2.2,0-2.6c0-0.4-0.1-0.6-0.5-0.7c-0.1,0-0.3,0-0.5,0c-0.1,0-0.2,0-0.2-0.1
				c0-0.1,0.1-0.1,0.3-0.1c0.3,0,0.7,0,1,0c0.3,0,0.6,0,0.8,0c0.4,0,2.9,0,3.1,0c0.2,0,0.4,0,0.5-0.1c0.1,0,0.1,0,0.2,0
				c0.1,0,0.1,0,0.1,0.1c0,0.1-0.1,0.2-0.1,0.8c0,0.1,0,0.7-0.1,0.8c0,0.1,0,0.1-0.1,0.1c-0.1,0-0.1-0.1-0.1-0.2
				c0-0.1,0-0.3-0.1-0.4c-0.1-0.2-0.2-0.4-0.8-0.4c-0.2,0-1.5-0.1-1.8-0.1c-0.1,0-0.1,0-0.1,0.1v3.1c0,0.1,0,0.1,0.1,0.1
				c0.3,0,1.7,0,2,0c0.3,0,0.5-0.1,0.6-0.2c0.1-0.1,0.1-0.2,0.2-0.2c0.1,0,0.1,0,0.1,0.1c0,0.1-0.1,0.3-0.1,0.9c0,0.2,0,0.7,0,0.8
				c0,0.1,0,0.2-0.1,0.2c-0.1,0-0.1,0-0.1-0.1c0-0.1,0-0.3,0-0.4c-0.1-0.2-0.2-0.4-0.7-0.5c-0.2,0-1.5,0-1.8,0
				c-0.1,0-0.1,0.1-0.1,0.1v1c0,0.4,0,1.6,0,1.9c0,0.9,0.2,1,1.5,1c0.3,0,0.8,0,1.2-0.2c0.3-0.1,0.5-0.4,0.6-0.9
				c0-0.1,0.1-0.2,0.1-0.2c0.1,0,0.1,0.1,0.1,0.2c0,0.3-0.1,1.1-0.2,1.4c-0.1,0.3-0.2,0.3-0.7,0.3c-0.9,0-1.6,0-2.1,0
				c-0.5,0-0.9,0-1.3,0c-0.1,0-0.4,0-0.7,0c-0.3,0-0.6,0-0.9,0c-0.2,0-0.2,0-0.2-0.1c0-0.1,0-0.1,0.2-0.1c0.2,0,0.3,0,0.4,0
				c0.2-0.1,0.3-0.3,0.4-0.7c0.1-0.5,0.1-1.5,0.1-2.6V59.5z"/>
			<path class="st0" d="M60.4,55.9c0-0.2,0.1-0.3,0.2-0.3c0.1,0,0.2,0.1,0.3,0.4l3.4,7l3.4-7.1c0.1-0.2,0.2-0.3,0.3-0.3
				c0.1,0,0.2,0.1,0.2,0.4l1.1,7.7c0.1,0.8,0.2,1.1,0.6,1.3c0.4,0.1,0.6,0.1,0.8,0.1c0.1,0,0.2,0,0.2,0.1c0,0.1-0.1,0.1-0.3,0.1
				c-0.3,0-2,0-2.5-0.1c-0.3,0-0.4-0.1-0.4-0.1c0-0.1,0-0.1,0.1-0.1c0.1,0,0.1-0.2,0.1-0.5l-0.7-5.5h-0.1l-2.7,5.6
				c-0.3,0.6-0.3,0.7-0.5,0.7c-0.1,0-0.2-0.2-0.4-0.6c-0.3-0.6-1.3-2.5-1.4-2.8C62,61.5,61.3,60,60.8,59h0L60.1,64
				c0,0.2,0,0.4,0,0.6c0,0.2,0.2,0.3,0.4,0.4C60.7,65,60.9,65,61,65c0.1,0,0.2,0,0.2,0.1c0,0.1-0.1,0.1-0.3,0.1c-0.5,0-1.1,0-1.3,0
				c-0.2,0-0.8,0-1.2,0c-0.1,0-0.2,0-0.2-0.1c0-0.1,0.1-0.1,0.2-0.1c0.1,0,0.2,0,0.4,0c0.3-0.1,0.4-0.6,0.5-1L60.4,55.9z"/>
			<path class="st0" d="M72.9,59.5c0-1.9,0-2.2,0-2.6c0-0.4-0.1-0.6-0.4-0.7c-0.1,0-0.3,0-0.4,0c-0.1,0-0.2,0-0.2-0.1
				c0-0.1,0.1-0.1,0.3-0.1c0.5,0,1.3,0,1.6,0c0.3,0,1,0,1.5,0c0.2,0,0.3,0,0.3,0.1c0,0.1-0.1,0.1-0.2,0.1c-0.1,0-0.2,0-0.4,0
				c-0.3,0.1-0.4,0.3-0.5,0.7c0,0.4,0,0.7,0,2.6v2.2c0,1.2,0,2.2,0,2.7c0,0.3,0.1,0.6,0.5,0.6c0.2,0,0.4,0,0.6,0
				c0.1,0,0.2,0,0.2,0.1c0,0.1-0.1,0.1-0.2,0.1c-0.8,0-1.6,0-1.9,0c-0.3,0-1.1,0-1.6,0c-0.2,0-0.2,0-0.2-0.1c0-0.1,0-0.1,0.2-0.1
				c0.2,0,0.3,0,0.4,0c0.3-0.1,0.3-0.3,0.4-0.6c0.1-0.5,0.1-1.5,0.1-2.7V59.5z"/>
			<path class="st0" d="M78,59.5c0-1.9,0-2.2,0-2.6c0-0.4-0.1-0.6-0.5-0.7c-0.1,0-0.3,0-0.5,0c-0.1,0-0.2,0-0.2-0.1
				c0-0.1,0.1-0.1,0.3-0.1c0.7,0,1.4,0,1.8,0c0.3,0,1.1,0,1.5,0c0.2,0,0.3,0,0.3,0.1c0,0.1-0.1,0.1-0.2,0.1c-0.1,0-0.2,0-0.4,0
				c-0.3,0.1-0.4,0.3-0.5,0.7c0,0.4,0,0.7,0,2.6v1.7c0,1.8,0.4,2.6,1,3.1c0.6,0.5,1.1,0.5,1.6,0.5c0.5,0,1.2-0.2,1.7-0.7
				c0.7-0.7,0.7-1.8,0.7-3.1v-1.6c0-1.9,0-2.2,0-2.6c0-0.4-0.1-0.6-0.5-0.7c-0.1,0-0.3,0-0.4,0c-0.1,0-0.2,0-0.2-0.1
				c0-0.1,0.1-0.1,0.3-0.1c0.6,0,1.4,0,1.4,0c0.1,0,0.9,0,1.4,0c0.2,0,0.3,0,0.3,0.1c0,0.1-0.1,0.1-0.2,0.1c-0.1,0-0.2,0-0.4,0
				c-0.3,0.1-0.4,0.3-0.5,0.7c0,0.4,0,0.7,0,2.6v1.3c0,1.4-0.1,2.8-1.2,3.7c-0.9,0.8-1.8,0.9-2.6,0.9c-0.7,0-1.8,0-2.8-0.9
				C78.5,64,78,63.1,78,61.3V59.5z"/>
			<path class="st0" d="M89.4,55.9c0-0.2,0.1-0.3,0.2-0.3s0.2,0.1,0.3,0.4l3.4,7l3.4-7.1c0.1-0.2,0.2-0.3,0.3-0.3
				c0.1,0,0.2,0.1,0.2,0.4l1.1,7.7c0.1,0.8,0.2,1.1,0.6,1.3c0.4,0.1,0.6,0.1,0.8,0.1c0.1,0,0.2,0,0.2,0.1c0,0.1-0.1,0.1-0.3,0.1
				c-0.3,0-2,0-2.5-0.1c-0.3,0-0.4-0.1-0.4-0.1c0-0.1,0-0.1,0.1-0.1c0.1,0,0.1-0.2,0.1-0.5l-0.7-5.5h-0.1l-2.7,5.6
				c-0.3,0.6-0.3,0.7-0.5,0.7c-0.1,0-0.2-0.2-0.4-0.6c-0.3-0.6-1.3-2.5-1.4-2.8C91,61.5,90.2,60,89.8,59h0L89.1,64
				c0,0.2,0,0.4,0,0.6c0,0.2,0.2,0.3,0.4,0.4c0.2,0.1,0.4,0.1,0.5,0.1c0.1,0,0.2,0,0.2,0.1c0,0.1-0.1,0.1-0.3,0.1
				c-0.5,0-1.1,0-1.3,0c-0.2,0-0.8,0-1.2,0c-0.1,0-0.2,0-0.2-0.1c0-0.1,0.1-0.1,0.2-0.1c0.1,0,0.2,0,0.4,0c0.3-0.1,0.4-0.6,0.5-1
				L89.4,55.9z"/>
			<path class="st0" d="M111.2,65.1c-0.5,0.2-1.3,0.3-2,0.3c-3.6,0-5.1-2.7-5.1-4.9c0-2,1.5-4.8,5.1-4.8c3,0,5,1.8,5,4.7
				c0,2.2-1.4,3.6-2.2,4.1l2.5,1.3c2.6,1.3,4.3,1.5,5.1,1.5c0.6,0,1.6-0.1,2.4-0.4c0.1,0,0.1-0.1,0.2-0.1c0.1,0,0.1,0,0.1,0.1
				c0,0.1-0.1,0.1-0.2,0.1c-0.7,0.4-2.1,0.9-3.9,0.9c-1.9,0-3.2-0.5-5.3-1.7L111.2,65.1z M112.6,60.7c0-3-1.9-4.4-3.6-4.4
				c-1.6,0-3.1,1-3.1,3.9c0,3,1.8,4.6,3.8,4.6C110.7,64.8,112.6,64.4,112.6,60.7z"/>
			<path class="st0" d="M116.6,59.5c0-1.9,0-2.2,0-2.6c0-0.4-0.1-0.6-0.5-0.7c-0.1,0-0.3,0-0.5,0c-0.1,0-0.2,0-0.2-0.1
				c0-0.1,0.1-0.1,0.3-0.1c0.7,0,1.4,0,1.8,0c0.3,0,1.1,0,1.5,0c0.2,0,0.3,0,0.3,0.1c0,0.1-0.1,0.1-0.2,0.1c-0.1,0-0.2,0-0.4,0
				c-0.3,0.1-0.4,0.3-0.5,0.7c0,0.4,0,0.7,0,2.6v1.7c0,1.8,0.4,2.6,1,3.1c0.6,0.5,1.1,0.5,1.6,0.5c0.5,0,1.2-0.2,1.7-0.7
				c0.7-0.7,0.7-1.8,0.7-3.1v-1.6c0-1.9,0-2.2,0-2.6c0-0.4-0.1-0.6-0.5-0.7c-0.1,0-0.3,0-0.4,0c-0.1,0-0.2,0-0.2-0.1
				c0-0.1,0.1-0.1,0.3-0.1c0.6,0,1.4,0,1.4,0c0.1,0,0.9,0,1.4,0c0.2,0,0.3,0,0.3,0.1c0,0.1-0.1,0.1-0.2,0.1c-0.1,0-0.2,0-0.4,0
				c-0.3,0.1-0.4,0.3-0.5,0.7c0,0.4,0,0.7,0,2.6v1.3c0,1.4-0.1,2.8-1.2,3.7c-0.9,0.8-1.8,0.9-2.6,0.9c-0.7,0-1.8,0-2.8-0.9
				c-0.6-0.6-1.1-1.5-1.1-3.3V59.5z"/>
			<path class="st0" d="M128.1,62c-0.1,0-0.1,0-0.1,0.1l-0.7,1.8c-0.1,0.3-0.2,0.6-0.2,0.8c0,0.2,0.1,0.4,0.5,0.4h0.2
				c0.1,0,0.2,0,0.2,0.1c0,0.1-0.1,0.1-0.2,0.1c-0.4,0-0.9,0-1.3,0c-0.1,0-0.8,0-1.5,0c-0.2,0-0.2,0-0.2-0.1c0-0.1,0.1-0.1,0.2-0.1
				c0.1,0,0.3,0,0.4,0c0.6-0.1,0.8-0.5,1.1-1.1l3.1-7.8c0.1-0.4,0.2-0.5,0.3-0.5c0.1,0,0.2,0.1,0.3,0.4c0.3,0.7,2.3,5.8,3.1,7.6
				c0.5,1.1,0.8,1.3,1.1,1.4c0.2,0,0.4,0,0.5,0c0.1,0,0.2,0,0.2,0.1c0,0.1-0.1,0.1-0.6,0.1c-0.4,0-1.4,0-2.3,0c-0.2,0-0.4,0-0.4-0.1
				c0-0.1,0-0.1,0.2-0.1c0.1,0,0.2-0.1,0.1-0.3l-1-2.6c0-0.1-0.1-0.1-0.1-0.1H128.1z M130.6,61.4C130.7,61.4,130.7,61.3,130.6,61.4
				l-1.1-3.1c0,0,0-0.1-0.1-0.1c0,0-0.1,0.1-0.1,0.1l-1.1,3.1c0,0,0,0.1,0,0.1H130.6z"/>
			<path class="st0" d="M137.8,61.6c0,1.6,0,2.4,0.3,2.7c0.2,0.2,0.5,0.3,1.5,0.3c0.7,0,1.1,0,1.5-0.3c0.1-0.2,0.3-0.5,0.3-0.7
				c0-0.1,0-0.2,0.1-0.2c0.1,0,0.1,0.1,0.1,0.2c0,0.1-0.1,1.1-0.2,1.4c-0.1,0.3-0.1,0.3-0.8,0.3c-0.9,0-1.5,0-2.1,0
				c-0.6,0-1,0-1.5,0c-0.1,0-0.4,0-0.7,0c-0.3,0-0.6,0-0.9,0c-0.2,0-0.2,0-0.2-0.1c0-0.1,0.1-0.1,0.2-0.1c0.2,0,0.3,0,0.4,0
				c0.2-0.1,0.3-0.3,0.4-0.7c0.1-0.5,0.1-1.5,0.1-2.6v-2.2c0-1.9,0-2.2,0-2.6c0-0.4-0.1-0.6-0.5-0.7c-0.1,0-0.2,0-0.4,0
				c-0.1,0-0.2,0-0.2-0.1c0-0.1,0.1-0.1,0.3-0.1c0.6,0,1.4,0,1.7,0c0.3,0,1.2,0,1.7,0c0.2,0,0.3,0,0.3,0.1c0,0.1-0.1,0.1-0.2,0.1
				c-0.1,0-0.3,0-0.5,0c-0.3,0.1-0.4,0.3-0.5,0.7c0,0.4,0,0.7,0,2.6V61.6z"/>
			<path class="st0" d="M143.8,59.5c0-1.9,0-2.2,0-2.6c0-0.4-0.1-0.6-0.4-0.7c-0.1,0-0.3,0-0.4,0c-0.1,0-0.2,0-0.2-0.1
				c0-0.1,0.1-0.1,0.3-0.1c0.5,0,1.3,0,1.6,0c0.3,0,1,0,1.5,0c0.2,0,0.3,0,0.3,0.1c0,0.1-0.1,0.1-0.2,0.1c-0.1,0-0.2,0-0.4,0
				c-0.3,0.1-0.4,0.3-0.5,0.7c0,0.4,0,0.7,0,2.6v2.2c0,1.2,0,2.2,0.1,2.7c0,0.3,0.1,0.6,0.5,0.6c0.2,0,0.4,0,0.6,0
				c0.1,0,0.2,0,0.2,0.1c0,0.1-0.1,0.1-0.2,0.1c-0.8,0-1.6,0-1.9,0c-0.3,0-1.1,0-1.6,0c-0.2,0-0.2,0-0.2-0.1c0-0.1,0.1-0.1,0.2-0.1
				c0.2,0,0.3,0,0.4,0c0.2-0.1,0.3-0.3,0.4-0.6c0.1-0.5,0.1-1.5,0.1-2.7V59.5z"/>
			<path class="st0" d="M151,56.6l-1.8,0.1c-0.7,0-1,0.1-1.2,0.4c-0.1,0.2-0.2,0.3-0.2,0.4c0,0.1-0.1,0.1-0.1,0.1
				c-0.1,0-0.1-0.1-0.1-0.2c0-0.2,0.2-1.3,0.3-1.4c0-0.2,0.1-0.2,0.1-0.2c0.1,0,0.2,0.1,0.5,0.2c0.4,0,0.8,0.1,1.2,0.1h4.9
				c0.4,0,0.7,0,0.9-0.1c0.2,0,0.3-0.1,0.3-0.1c0.1,0,0.1,0.1,0.1,0.3c0,0.3,0,1.1,0,1.4c0,0.1,0,0.2-0.1,0.2
				c-0.1,0-0.1-0.1-0.1-0.3l0-0.1c0-0.3-0.4-0.7-1.5-0.7l-1.6,0v5.1c0,1.1,0,2.1,0.1,2.7c0,0.3,0.1,0.6,0.5,0.7c0.2,0,0.4,0,0.6,0
				c0.1,0,0.2,0,0.2,0.1c0,0.1-0.1,0.1-0.2,0.1c-0.8,0-1.6,0-1.9,0c-0.3,0-1.1,0-1.6,0c-0.2,0-0.2,0-0.2-0.1c0-0.1,0-0.1,0.2-0.1
				c0.2,0,0.3,0,0.4,0c0.2-0.1,0.3-0.3,0.4-0.7c0.1-0.5,0.1-1.5,0.1-2.6V56.6z"/>
			<path class="st0" d="M159.6,62c0-0.7-0.1-0.9-0.3-1.3c-0.1-0.2-1.8-2.9-2.2-3.6c-0.3-0.5-0.6-0.8-0.9-0.9
				c-0.2-0.1-0.4-0.2-0.5-0.2c-0.1,0-0.2,0-0.2-0.1c0-0.1,0.1-0.1,0.2-0.1c0.2,0,1.2,0,1.6,0c0.3,0,0.8,0,1.3,0c0.1,0,0.2,0,0.2,0.1
				c0,0.1-0.1,0.1-0.3,0.1c-0.1,0-0.2,0.1-0.2,0.2c0,0.1,0.1,0.2,0.1,0.4c0.2,0.4,1.9,3.4,2.1,3.7c0.1-0.3,1.7-3,1.9-3.4
				c0.1-0.3,0.2-0.5,0.2-0.6c0-0.1-0.1-0.3-0.3-0.3c-0.1,0-0.2,0-0.2-0.1c0-0.1,0.1-0.1,0.2-0.1c0.4,0,0.8,0,1.2,0
				c0.3,0,1.1,0,1.3,0c0.1,0,0.2,0,0.2,0.1c0,0.1-0.1,0.1-0.2,0.1c-0.1,0-0.4,0-0.5,0.1c-0.3,0.1-0.4,0.3-0.7,0.6
				c-0.4,0.5-2.1,3.4-2.4,3.9c-0.2,0.4-0.2,0.8-0.2,1.2v1c0,0.2,0,0.7,0,1.2c0,0.4,0.1,0.6,0.5,0.7c0.2,0,0.4,0,0.6,0
				c0.1,0,0.2,0,0.2,0.1c0,0.1-0.1,0.1-0.3,0.1c-0.8,0-1.6,0-1.9,0c-0.3,0-1.1,0-1.6,0c-0.2,0-0.3,0-0.3-0.1c0-0.1,0.1-0.1,0.2-0.1
				c0.2,0,0.3,0,0.4,0c0.2-0.1,0.4-0.3,0.4-0.7c0-0.5,0-1,0-1.2V62z"/>
		</g>
	</g>
</g>
</svg>
