<?xml version="1.0" encoding="utf-8"?>
<!-- Generator: Adobe Illustrator 23.0.0, SVG Export Plug-In . SVG Version: 6.00 Build 0)  -->
<svg version="1.1" id="Capa_1" xmlns="http://www.w3.org/2000/svg" xmlns:xlink="http://www.w3.org/1999/xlink" x="0px" y="0px"
	 viewBox="0 0 349.9 116.5" style="enable-background:new 0 0 349.9 116.5;" xml:space="preserve">
<style type="text/css">
	.st0{fill:#988648;}
	.st1{fill:#FFFFFF;}
</style>
<g>
	<g>
		<path class="st0" d="M93.8,7h-8.2v7.2c0,4.3,3.7,7.7,8,7.7c4.3,0,7.9-3.2,7.9-7.5C101.4,10.2,98.1,7,93.8,7z"/>
		<path class="st0" d="M112.2,0l-6.4,6.4c-3.6,3.6-3.6,9.3,0,12.9c3.6,3.6,9.3,3.6,12.9,0c3.6-3.6,3.6-9.3,0-12.9L112.2,0z"/>
		<path class="st0" d="M130.5,7c-4.3,0-7.7,3.2-7.7,7.5c0,4.3,3,7.6,7.3,7.6c4.3,0,7.3-3.6,7.3-7.9V7H130.5z"/>
		<rect x="89.6" y="23" class="st0" width="43.8" height="6"/>
	</g>
	<g>
		<path class="st1" d="M342.1,37.5c-3.2,0-5.9-2.6-5.9-6.2c0-3.6,2.6-6.2,5.9-6.2c3.2,0,5.9,2.6,5.9,6.2
			C348,34.9,345.4,37.5,342.1,37.5z M342.1,39c4.3,0,7.7-3.5,7.7-7.7c0-4.2-3.5-7.7-7.7-7.7c-4.3,0-7.7,3.5-7.7,7.7
			C334.4,35.5,337.9,39,342.1,39z M338.4,34.9h2v-4h1.4l2.3,4h1.7l-2.4-3.5c1.4-0.1,2.3-0.6,2.3-2.1c0-1.8-1.1-2.4-3.2-2.4h-4.1
			V34.9z M340.8,28.1h1.4c0.8,0,1.8,0.2,1.8,1.2c0,1.2-0.8,1.3-1.8,1.3h-1.4V28.1z"/>
		<path class="st1" d="M15.9,38.5c4-4.3,9.7-6.5,16.3-6.5c6.2,0,12.1,2,15.7,6.5c4.2-4.5,9.8-6.5,16.4-6.5
			c13.7,0,17.3,8.2,17.3,18.7v22.4c0,4.2-0.3,7.6,3.8,11.6H67.7V51c0-5.8-1.2-10.6-8.6-10.6c-8,0-9.3,5.7-9.3,11.9v20.8
			c0,4.2-0.6,7.6,3.5,11.6H35.8V52.3c0-6.1-1.8-11.9-9.8-11.9c-7.6,0-10.1,6.3-10.1,11.9v20.8c0,4.2,1,7.6,5.1,11.6H4V44.4
			c0-4.1,0.1-7.5-4-11.5h15.9V38.5z"/>
		<path class="st1" d="M124.8,58.1c0,7.5-1.8,18-12.7,18c-10.8,0-12.6-10.6-12.6-18c0-7.2,2.7-16.9,12.6-16.9
			C122.1,41.2,124.8,51,124.8,58.1z M138.2,58.3c0-14.4-8.8-26.3-26.1-26.3c-17.1,0-26,12.2-26,26.3c0,14.5,8.1,27.2,26,27.2
			C130,85.5,138.2,72.8,138.2,58.3z"/>
		<path class="st1" d="M155.2,38.5c6-4.8,9.8-6.5,17.2-6.5c4.6,0,9.5,1.6,12.7,4.8c3.9,4,3.9,9.3,3.9,14.4v21.9
			c0,4.2,0,7.6,4.1,11.6h-16V52.4c0-6.3-2-12-10.7-12c-8.7,0-11.2,6.4-11.2,13v19.7c0,4.2,0.7,7.6,4.8,11.6h-16.7V44.4
			c0-4.1-0.2-7.5-4.3-11.5h16.2V38.5z"/>
		<path class="st1" d="M226.9,58.8v12c-2,3.4-6.4,6.3-11.2,6.3c-4.7,0-8.3-3.6-8.3-7.7C207.3,60.6,218.9,58.8,226.9,58.8z M197,47.2
			c4-5,11.1-6.8,17.8-6.8c9.8,0,11.6,3.6,11.6,11.5c-13.6,0-32.8,3.5-32.8,18.6c0,8.8,7.5,15,17.3,15c6.4,0,11.3-2.2,15.6-6.3
			c0.3,1.8,0.7,3.5,1.5,5.5h15.4c-4.1-4-4.5-7.4-4.5-11.6V49.9c0-5.1,0.2-9.7-4.3-13.5c-3.9-3.5-9.7-4.4-15-4.4
			c-5.4,0-10.7,0.9-16.1,0.9c-2.2,0-4.5-0.1-6.5-1.1V47.2z"/>
		<path class="st1" d="M284,47.9c-2.8-4.3-6.1-7.2-12.1-7.2c-10.7,0-14.6,9.9-14.6,17.8c0,8.9,5,17.7,16.1,17.7
			c5.4,0,9.4-3.2,11.8-7.2L284,85c-0.8-0.5-1.8-0.7-2.8-0.7c-3.8,0-7.5,1.2-11.4,1.2c-16.4,0-25.9-13.4-25.9-26.9
			c0-12.9,8.7-26.6,24.8-26.6c3.4,0,6.6,0.8,10,0.8c1.6,0,2.7-0.7,3.8-1.6L284,47.9z"/>
		<path class="st1" d="M326,58.1c0,7.5-1.8,18-12.7,18c-10.8,0-12.6-10.6-12.6-18c0-7.2,2.7-16.9,12.6-16.9
			C323.2,41.2,326,51,326,58.1z M339.3,58.3c0-14.4-8.8-26.3-26.1-26.3c-17.1,0-26,12.2-26,26.3c0,14.5,8.1,27.2,26,27.2
			C331.1,85.5,339.3,72.8,339.3,58.3z"/>
	</g>
	<g>
		<path class="st0" d="M59.7,102c0-3.2,0-3.8-0.1-4.5c0-0.7-0.2-1.1-0.9-1.2c-0.2,0-0.5-0.1-0.8-0.1c-0.2,0-0.4,0-0.4-0.2
			c0-0.2,0.1-0.2,0.5-0.2c1.1,0,2.5,0.1,3.1,0.1c0.9,0,2.1-0.1,3.1-0.1c2.7,0,3.6,0.9,4,1.2c0.5,0.4,1.1,1.4,1.1,2.5
			c0,3-2.2,5.2-5.2,5.2c-0.1,0-0.3,0-0.4,0c-0.1,0-0.3,0-0.3-0.2c0-0.2,0.1-0.2,0.6-0.2c1.2,0,2.9-1.3,2.9-3.5
			c0-0.7-0.1-2.1-1.3-3.2c-0.8-0.7-1.6-0.8-2.1-0.8c-0.3,0-0.9,0-1.1,0.1c-0.1,0-0.4,0.2-0.4,0.4v8.5c0,2,0.3,3.6,0.4,4.6
			c0.1,0.6,0.3,1.1,1,1.1c0.3,0,0.8,0.1,1.2,0.1c0.2,0,0.4,0.1,0.4,0.2c0,0.1-0.2,0.2-0.4,0.2c-1.4,0-2.7-0.1-3.3-0.1
			c-0.5,0-1.8,0.1-2.7,0.1c-0.3,0-0.4-0.1-0.4-0.2c0-0.1,0.1-0.2,0.3-0.2c0.3,0,0.6,0,0.8-0.1c0.4-0.1,0.6-0.6,0.7-1.2
			c0.1-0.9,0.2-2.6,0.2-4.5V102z"/>
		<path class="st0" d="M73.6,102c0-3.2,0-3.8-0.1-4.5c0-0.7-0.2-1.1-0.9-1.2c-0.2,0-0.5-0.1-0.8-0.1c-0.2,0-0.4,0-0.4-0.2
			c0-0.2,0.1-0.2,0.5-0.2c1.1,0,2.5,0.1,2.9,0.1c0.7,0,2.3-0.1,3-0.1c1.3,0,2.8,0.1,3.9,0.9c0.6,0.4,1.4,1.5,1.4,2.9
			c0,1.6-0.7,3-2.8,4.8c1.9,2.4,3.4,4.3,4.6,5.6c1.2,1.2,2.1,1.4,2.4,1.5c0.2,0,0.4,0.1,0.6,0.1c0.2,0,0.3,0.4,0.3,0.5
			c0,0.2-0.1,0.5-0.4,0.5h-2c-1.2,0-1.7-0.4-2.3-0.7c-0.9-0.5-1.7-1.6-2.9-3.3c-0.9-1.2-1.8-2.7-2.1-3c-0.1-0.1-0.2-0.2-0.4-0.2
			l-2.1-0.1c-0.1,0-0.4,0-0.4,0.1v0.3c0,2,0.2,3.7,0.3,4.6c0.1,0.6,0.3,1.1,0.9,1.2c0.3,0,0.8,0.1,1.1,0.1c0.2,0,0.3,0.1,0.3,0.2
			c0,0.1-0.1,0.2-0.4,0.2c-1.2,0-2.8-0.1-3.1-0.1c-0.4,0-1.7,0.1-2.6,0.1c-0.3,0-0.4-0.1-0.4-0.2c0-0.1,0.1-0.2,0.3-0.2
			c0.3,0,0.6,0,0.8-0.1c0.4-0.1,0.6-0.6,0.7-1.2c0.1-0.9,0.1-2.6,0.1-4.5V102z M75.6,103.7c0,0.2,0.3,0.3,0.4,0.4
			c0.4,0.1,1.2,0.2,1.7,0.2c0.9,0,1.2-0.1,1.6-0.4c0.6-0.5,1.3-1.4,1.3-3.2c0-3-2-3.9-3.2-3.9c-0.5,0-1.1,0-1.3,0.1
			c-0.2,0-0.4,0.1-0.4,0.3V103.7z"/>
		<path class="st0" d="M89.6,102c0-3.2,0-3.8,0-4.5c0-0.7-0.2-1.1-0.9-1.2c-0.2,0-0.5-0.1-0.8-0.1c-0.2,0-0.4,0-0.4-0.2
			c0-0.2,0.2-0.2,0.5-0.2c1.1,0,2.5,0.1,3.1,0.1c0.7,0,4.9,0,5.3,0c0.4,0,0.7-0.1,0.9-0.1c0.1,0,0.2-0.1,0.3-0.1
			c0.1,0,0.1,0.1,0.1,0.2c0,0.1-0.1,0.4-0.2,1.4c0,0.2-0.1,1.1-0.1,1.4c0,0.1-0.1,0.2-0.2,0.2c-0.2,0-0.2-0.1-0.2-0.3
			c0-0.1,0-0.5-0.1-0.8c-0.2-0.4-0.4-0.6-1.4-0.8c-0.4,0-3-0.1-3.4-0.1c-0.1,0-0.5,0.1-0.5,0.2v5.4c0,0.1,0.4,0.2,0.5,0.2
			c0.5,0,3.1,0,3.6,0c0.5,0,0.9-0.1,1.1-0.3c0.1-0.2,0.3-0.3,0.4-0.3c0.1,0,0.2,0,0.2,0.2c0,0.1-0.1,0.5-0.2,1.6
			c0,0.4-0.1,1.3-0.1,1.4c0,0.2,0,0.4-0.2,0.4c-0.1,0-0.2-0.1-0.2-0.2c0-0.2,0-0.5-0.1-0.8c-0.1-0.4-0.4-0.7-1.2-0.8
			c-0.4,0-2.9-0.1-3.4-0.1c-0.1,0-0.5,0.1-0.5,0.2v1.7c0,0.7,0.4,2.7,0.4,3.3c0,1.5,0.6,1.8,2.7,1.8c0.6,0,1.5,0,2.1-0.3
			c0.6-0.3,0.9-0.7,1-1.6c0-0.2,0.1-0.3,0.3-0.3c0.2,0,0.2,0.2,0.2,0.4c0,0.5-0.2,1.9-0.3,2.4c-0.1,0.6-0.3,0.6-1.1,0.6
			c-3.2,0-4.6-0.1-5.9-0.1c-0.5,0-1.8,0.1-2.7,0.1c-0.3,0-0.4-0.1-0.4-0.2c0-0.1,0.1-0.2,0.3-0.2c0.3,0,0.6,0,0.8-0.1
			c0.4-0.1,0.5-0.6,0.6-1.2c0.1-0.9,0.1-2.6,0.1-4.5V102z"/>
		<path class="st0" d="M103.9,95.9c0.1-0.4,0.2-0.6,0.4-0.6c0.2,0,0.3,0.1,0.6,0.7l5.8,12l5.8-12.2c0.1-0.3,0.3-0.5,0.5-0.5
			c0.2,0,0.3,0.2,0.4,0.7l1.9,13.2c0.2,1.3,0.4,2,1,2.1c0.6,0.2,1,0.2,1.3,0.2c0.2,0,0.3,0,0.3,0.2c0,0.2-0.3,0.2-0.6,0.2
			c-0.5,0-3.5-0.1-4.3-0.1c-0.5,0-0.6-0.1-0.6-0.2c0-0.1,0.1-0.2,0.2-0.2c0.1,0,0.2-0.5,0.1-1.1l-1.3-9.6h-0.1l-4.6,9.9
			c-0.5,1-0.6,1.3-0.8,1.3c-0.2,0-0.4-0.4-0.7-1c-0.5-1-2.2-4.6-2.4-5.1c-0.2-0.4-1.5-3-2.2-5h-0.1l-1.1,8.8c0,0.4-0.1,0.8-0.1,1.2
			c0,0.4,0.3,0.7,0.6,0.8c0.4,0.1,0.7,0.1,0.9,0.1c0.2,0,0.3,0.1,0.3,0.2c0,0.2-0.2,0.2-0.5,0.2c-0.9,0-1.9-0.1-2.2-0.1
			c-0.4,0-1.4,0.1-2.1,0.1c-0.2,0-0.4,0-0.4-0.2c0-0.1,0.1-0.2,0.3-0.2c0.2,0,0.3,0,0.6-0.1c0.6-0.1,0.8-1,0.9-1.7L103.9,95.9z"/>
		<path class="st0" d="M125.4,102c0-3.2,0-3.8-0.1-4.5c0-0.7-0.3-1.1-0.7-1.2c-0.2-0.1-0.5-0.1-0.8-0.1c-0.2,0-0.3,0-0.3-0.2
			c0-0.1,0.2-0.2,0.5-0.2c0.8,0,2.1,0.1,2.8,0.1c0.5,0,1.8-0.1,2.6-0.1c0.3,0,0.4,0,0.4,0.2c0,0.2-0.1,0.2-0.3,0.2
			c-0.2,0-0.4,0-0.6,0.1c-0.6,0.1-1,0.5-1.1,1.2c0,0.7-0.3,1.3-0.3,4.5v3.7c0,2.1,0.3,3.7,0.4,4.7c0.1,0.6,0.4,1,1,1
			c0.3,0,0.8,0.1,1.2,0.1c0.2,0,0.4,0.1,0.4,0.2c0,0.1-0.2,0.2-0.4,0.2c-1.4,0-2.7-0.1-3.3-0.1c-0.5,0-1.8,0.1-2.7,0.1
			c-0.3,0-0.4-0.1-0.4-0.2c0-0.1,0.1-0.2,0.3-0.2c0.3,0,0.6,0,0.8-0.1c0.4-0.1,0.6-0.4,0.6-1.1c0.1-0.9,0.1-2.6,0.1-4.6V102z"/>
		<path class="st0" d="M133.3,102c0-3.2,0.3-3.8,0.3-4.5c0-0.7,0-1.1-0.7-1.2c-0.2,0-0.4-0.1-0.7-0.1c-0.2,0-0.3,0-0.3-0.2
			c0-0.2,0.2-0.2,0.5-0.2c1.1,0,2.5,0.1,3.1,0.1c0.5,0,1.9-0.1,2.6-0.1c0.3,0,0.5,0,0.5,0.2c0,0.1-0.1,0.2-0.3,0.2
			c-0.2,0-0.4,0-0.6,0.1c-0.6,0.1-0.5,0.5-0.5,1.2c0,0.7,0.2,1.3,0.2,4.5v3c0,3.1,0.3,4.4,1.4,5.2c1,0.8,1.8,0.9,2.5,0.9
			c0.9,0,2-0.3,2.9-1.2c1.2-1.2,1.2-3.1,1.2-5.3V102c0-3.2,0-3.8-0.1-4.5c0-0.7-0.2-1.1-0.9-1.2c-0.2,0-0.5-0.1-0.8-0.1
			c-0.2,0-0.4,0-0.4-0.2c0-0.2,0.1-0.2,0.4-0.2c1.1,0,2.4,0.1,2.4,0.1c0.3,0,1.6-0.1,2.4-0.1c0.3,0,0.4,0,0.4,0.2
			c0,0.1-0.1,0.2-0.4,0.2c-0.2,0-0.4,0-0.6,0.1c-0.6,0.1-0.7,0.5-0.7,1.2c0,0.7,0,1.3,0,4.5v2.3c0,2.4-0.3,4.9-2.1,6.4
			c-1.5,1.3-3.1,1.5-4.5,1.5c-1.1,0-3.5-0.1-5.1-1.5c-1.1-1-2.3-2.6-2.3-5.6V102z"/>
		<path class="st0" d="M153.5,95.9c0.1-0.4,0.2-0.6,0.4-0.6c0.2,0,0.3,0.1,0.6,0.7l5.8,12l5.8-12.2c0.1-0.3,0.3-0.5,0.5-0.5
			c0.2,0,0.3,0.2,0.4,0.7l1.9,13.2c0.2,1.3,0.4,2,1,2.1c0.6,0.2,1,0.2,1.3,0.2c0.2,0,0.3,0,0.3,0.2c0,0.2-0.3,0.2-0.6,0.2
			c-0.5,0-3.5-0.1-4.3-0.1c-0.5,0-0.6-0.1-0.6-0.2c0-0.1,0.1-0.2,0.2-0.2c0.1,0,0.2-0.5,0.1-1.1l-1.3-9.6h-0.1l-4.6,9.9
			c-0.5,1-0.6,1.3-0.8,1.3c-0.2,0-0.4-0.4-0.7-1c-0.5-1-2.2-4.6-2.4-5.1c-0.2-0.4-1.5-3-2.2-5h-0.1l-1.1,8.8c0,0.4-0.1,0.8-0.1,1.2
			c0,0.4,0.3,0.7,0.6,0.8c0.4,0.1,0.7,0.1,0.9,0.1c0.2,0,0.3,0.1,0.3,0.2c0,0.2-0.2,0.2-0.5,0.2c-0.9,0-1.9-0.1-2.2-0.1
			c-0.4,0-1.4,0.1-2.1,0.1c-0.2,0-0.4,0-0.4-0.2c0-0.1,0.1-0.2,0.3-0.2c0.2,0,0.3,0,0.6-0.1c0.6-0.1,0.8-1,0.9-1.7L153.5,95.9z"/>
		<path class="st0" d="M191,111.7c-0.9,0.3-2.2,0.6-3.3,0.6c-6.2,0-8.7-4.6-8.7-8.4c0-3.5,2.5-8.2,8.7-8.2c5.1,0,8.6,3.1,8.6,8.1
			c0,3.7-2.4,6.1-3.7,7l4.3,2.2c4.5,2.3,7.3,2.5,8.8,2.5c1.1,0,2.7-0.2,4.2-0.7c0.1,0,0.2-0.1,0.3-0.1c0.1,0,0.2,0.1,0.2,0.2
			c0,0.1-0.1,0.2-0.3,0.3c-1.3,0.6-3.7,1.6-6.7,1.6c-3.2,0-5.5-0.9-9-2.9L191,111.7z M193.4,104.2c0-5.2-3.2-7.6-6.1-7.6
			c-2.8,0-5.3,1.8-5.3,6.7c0,5.1,3.1,7.9,6.5,7.9C190.2,111.1,193.4,110.4,193.4,104.2z"/>
		<path class="st0" d="M201,102c0-3.2-0.4-3.8-0.4-4.5c0-0.7-0.4-1.1-1.1-1.2c-0.2,0-0.6-0.1-0.9-0.1c-0.2,0-0.4,0-0.4-0.2
			c0-0.2,0.1-0.2,0.4-0.2c1.1,0,2.5,0.1,3.1,0.1c0.5,0,1.8-0.1,2.6-0.1c0.3,0,0.5,0,0.5,0.2c0,0.1-0.1,0.2-0.3,0.2
			c-0.2,0-0.4,0-0.6,0.1c-0.6,0.1-0.7,0.5-0.8,1.2c0,0.7,0,1.3,0,4.5v3c0,3.1,0.6,4.4,1.6,5.2c1,0.8,1.9,0.9,2.7,0.9
			c0.9,0,1.8-0.3,2.7-1.2c1.2-1.2,1-3.1,1-5.3V102c0-3.2,0.2-3.8,0.2-4.5c0-0.7-0.1-1.1-0.8-1.2c-0.2,0-0.5-0.1-0.7-0.1
			c-0.2,0-0.3,0-0.3-0.2c0-0.2,0.2-0.2,0.5-0.2c1.1,0,2.4,0.1,2.5,0.1c0.3,0,1.6-0.1,2.4-0.1c0.3,0,0.4,0,0.4,0.2
			c0,0.1-0.1,0.2-0.4,0.2c-0.2,0-0.4,0-0.6,0.1c-0.6,0.1-0.9,0.5-1,1.2c0,0.7-0.2,1.3-0.2,4.5v2.3c0,2.4-0.1,4.9-1.8,6.4
			c-1.5,1.3-3,1.5-4.3,1.5c-1.1,0-2.7-0.1-4.3-1.5c-1.1-1-1.5-2.6-1.5-5.6V102z"/>
		<path class="st0" d="M219.9,106.6c-0.1,0-0.1-0.1-0.2,0.1l-1.2,3c-0.2,0.5-0.3,0.5-0.3,0.8c0,0.4,0.2,0.1,0.9,0.1h0.3
			c0.3,0,0.3,0.5,0.3,0.7c0,0.2-0.1,0.5-0.4,0.5c-0.7,0-1.6,0.1-2.3,0.1c-0.2,0-1.4,0.1-2.5,0.1c-0.3,0-0.4,0-0.4-0.2
			c0-0.1,0.1-0.2,0.3-0.2c0.2,0,0.5,0,0.7,0c1-0.1,1.4-0.8,1.8-1.9l5.3-13.4c0.3-0.6,0.4-0.8,0.6-0.8c0.2,0,0.3,0.2,0.5,0.7
			c0.5,1.2,3.9,9.9,5.3,13.1c0.8,1.9,1.4,2.2,1.9,2.3c0.3,0.1,0.6,0.1,0.9,0.1c0.2,0,0.3,0,0.3,0.2c0,0.2-0.2,0.2-1,0.2
			c-0.8,0-2.3,0-4,0c-0.4,0-0.6,0-0.6-0.2c0-0.1,0.1-0.2,0.3-0.2c0.2,0,0.3-0.2,0.2-0.5l-1.7-4.4c0-0.1-0.1,0-0.2,0H219.9z
			 M224.2,104.6c0.1,0,0.1,0.3,0.1,0.2l-1.9-5.1c0-0.1,0-0.1-0.1-0.1c-0.1,0-0.1,0.2-0.1,0.2l-2,4.9c0,0.1,0-0.2,0.1-0.2H224.2z"/>
		<path class="st0" d="M236.8,105.7c0,2.7-0.1,4.2,0.3,4.6c0.4,0.3,0.9,0.5,2.5,0.5c1.1,0,1.9,0,2.5-0.6c0.3-0.3,0.5-0.9,0.5-1.3
			c0-0.2,0.1-0.3,0.2-0.3c0.1,0,0.2,0.1,0.2,0.4c0,0.2-0.2,1.8-0.3,2.4c-0.1,0.5-0.2,0.6-1.3,0.6c-3.1,0-4.5-0.1-6.2-0.1
			c-0.5,0-1.8,0.1-2.7,0.1c-0.3,0-0.4-0.1-0.4-0.2c0-0.1,0.1-0.2,0.3-0.2c0.3,0,0.6,0,0.8-0.1c0.4-0.1,1-0.6,1.1-1.2
			c0.1-0.9,0.6-2.6,0.6-4.5V102c0-3.2-0.5-3.8-0.5-4.5c0-0.7-0.4-1.1-1.1-1.2c-0.2,0-0.5-0.1-0.8-0.1c-0.2,0-0.4,0-0.4-0.2
			c0-0.2,0.1-0.2,0.4-0.2c1,0,2.3,0.1,2.9,0.1c0.5,0,2.1-0.1,2.9-0.1c0.3,0,0.4,0,0.4,0.2c0,0.1-0.1,0.2-0.4,0.2
			c-0.2,0-0.6,0-0.8,0.1c-0.6,0.1-0.6,0.5-0.7,1.2c0,0.7,0.1,1.3,0.1,4.5V105.7z"/>
		<path class="st0" d="M246.8,102c0-3.2,0-3.8,0-4.5c0-0.7-0.3-1.1-0.7-1.2c-0.2-0.1-0.5-0.1-0.8-0.1c-0.2,0-0.3,0-0.3-0.2
			c0-0.1,0.2-0.2,0.5-0.2c0.8,0,2.2,0.1,2.8,0.1c0.5,0,1.8-0.1,2.6-0.1c0.3,0,0.4,0,0.4,0.2c0,0.2-0.1,0.2-0.3,0.2
			c-0.2,0-0.4,0-0.6,0.1c-0.6,0.1-1.1,0.5-1.1,1.2c0,0.7-0.4,1.3-0.4,4.5v3.7c0,2.1,0.3,3.7,0.4,4.7c0.1,0.6,0.4,1,1,1
			c0.3,0,0.8,0.1,1.2,0.1c0.2,0,0.4,0.1,0.4,0.2c0,0.1-0.2,0.2-0.4,0.2c-1.4,0-2.7-0.1-3.3-0.1c-0.5,0-1.8,0.1-2.7,0.1
			c-0.3,0-0.4-0.1-0.4-0.2c0-0.1,0.1-0.2,0.3-0.2c0.3,0,0.6,0,0.8-0.1c0.4-0.1,0.5-0.4,0.6-1.1c0.1-0.9,0.1-2.6,0.1-4.6V102z"/>
		<path class="st0" d="M258.7,97l-2.9,0.1c-1.2,0-1.6,0.1-1.9,0.6c-0.2,0.3-0.3,0.6-0.3,0.7c0,0.2-0.1,0.3-0.2,0.3
			c-0.2,0-0.2-0.1-0.2-0.3c0-0.3,0.4-2.3,0.5-2.4c0.1-0.3,0.1-0.4,0.3-0.4c0.2,0,0.4,0.6,0.9,0.6c0.6,0.1,1.4,0.5,2.1,0.5h8.4
			c0.7,0,1.2-0.4,1.5-0.5c0.3-0.1,0.5-0.3,0.6-0.3c0.1,0,0.2,0,0.2,0.4c0,0.4-0.1,1.9-0.1,2.4c0,0.2-0.1,0.3-0.2,0.3
			c-0.2,0-0.2-0.1-0.2-0.4l0-0.2c0-0.6-0.2-1.2-2.1-1.2l-2.3-0.1v8.7c0,2-0.4,3.6-0.3,4.6c0.1,0.6,0,1.1,0.6,1.1
			c0.3,0,0.7,0.1,1,0.1c0.2,0,0.3,0.1,0.3,0.2c0,0.1-0.2,0.2-0.4,0.2c-1.4,0-2.8-0.1-3.4-0.1c-0.5,0-1.8,0.1-2.7,0.1
			c-0.3,0-0.4-0.1-0.4-0.2c0-0.1,0.1-0.2,0.3-0.2c0.3,0,0.6,0,0.8-0.1c0.4-0.1,0.3-0.6,0.4-1.2c0.1-0.9-0.2-2.6-0.2-4.5V97z"/>
		<path class="st0" d="M274.7,106.4c0-1.1-0.5-1.6-0.8-2.2c-0.1-0.3-3.2-5-3.9-6.1c-0.5-0.8-1.1-1.3-1.5-1.6
			c-0.3-0.1-0.7-0.3-0.9-0.3c-0.2,0-0.3,0-0.3-0.2c0-0.1,0.1-0.2,0.4-0.2c0.4,0,2,0.1,2.7,0.1c0.4,0,1.3-0.1,2.3-0.1
			c0.2,0,0.3,0.1,0.3,0.2c0,0.1-0.2,0.1-0.5,0.2c-0.2,0-0.3,0.2-0.3,0.4c0,0.2,0.1,0.4,0.3,0.7c0.3,0.6,3.3,5.8,3.6,6.4
			c0.2-0.5,2.9-5.2,3.2-5.9c0.2-0.5,0.3-0.8,0.3-1.1c0-0.2-0.1-0.4-0.4-0.5c-0.2,0-0.4-0.1-0.4-0.2c0-0.2,0.1-0.2,0.4-0.2
			c0.7,0,1.4,0.1,2,0.1c0.5,0,1.9-0.1,2.3-0.1c0.2,0,0.4,0,0.4,0.2c0,0.2-0.2,0.2-0.4,0.2c-0.2,0-0.6,0.1-0.9,0.3
			c-0.4,0.2-0.7,0.5-1.1,1c-0.7,0.9-3.7,5.9-4.1,6.8c-0.3,0.8-0.4,1.4-0.4,2.1v1.7c0,0.3,0,1.2,0.1,2.1c0,0.6,0.3,1.1,0.9,1.2
			c0.3,0,0.8,0.1,1.1,0.1c0.2,0,0.3,0.1,0.3,0.2c0,0.1-0.2,0.2-0.4,0.2c-1.3,0-2.7-0.1-3.3-0.1c-0.5,0-1.9,0.1-2.7,0.1
			c-0.3,0-0.5,0-0.5-0.2c0-0.1,0.1-0.2,0.3-0.2c0.3,0,0.6,0,0.7-0.1c0.4-0.1,0.9-0.6,1-1.2c0.1-0.9,0.4-1.8,0.4-2.1V106.4z"/>
	</g>
</g>
</svg>
